<?xml version="1.0" encoding="UTF-8" standalone="no"?>
<!DOCTYPE svg PUBLIC "-//W3C//DTD SVG 1.1//EN" "http://www.w3.org/Graphics/SVG/1.1/DTD/svg11.dtd">
<svg version="1.1" xmlns="http://www.w3.org/2000/svg" xmlns:xlink="http://www.w3.org/1999/xlink" preserveAspectRatio="xMidYMid meet" viewBox="0 0 640 640" width="640" height="640"><defs><path d="M18 2C16.34 2 15 3.34 15 5C15 6.66 16.34 8 18 8C19.66 8 21 6.66 21 5C21 3.34 19.66 2 18 2Z" id="d8tRxR1yCg"></path><path d="M6 9C4.34 9 3 10.34 3 12C3 13.66 4.34 15 6 15C7.66 15 9 13.66 9 12C9 10.34 7.66 9 6 9Z" id="f3rTJ0pD41"></path><path d="M18 16C16.34 16 15 17.34 15 19C15 20.66 16.34 22 18 22C19.66 22 21 20.66 21 19C21 17.34 19.66 16 18 16Z" id="fr6UZTheo"></path><path d="M8.59 13.51L15.42 17.49" id="d3ttJMlbPU"></path><path d="M15.41 6.51L8.59 10.49" id="dIZxO8WDB"></path></defs><g><g><g><use xlink:href="#d8tRxR1yCg" opacity="1" fill="#000000" fill-opacity="0"></use><g><use xlink:href="#d8tRxR1yCg" opacity="1" fill-opacity="0" stroke="#989b9f" stroke-width="2" stroke-opacity="1"></use></g></g><g><use xlink:href="#f3rTJ0pD41" opacity="1" fill="#000000" fill-opacity="0"></use><g><use xlink:href="#f3rTJ0pD41" opacity="1" fill-opacity="0" stroke="#989b9f" stroke-width="2" stroke-opacity="1"></use></g></g><g><use xlink:href="#fr6UZTheo" opacity="1" fill="#000000" fill-opacity="0"></use><g><use xlink:href="#fr6UZTheo" opacity="1" fill-opacity="0" stroke="#989b9f" stroke-width="2" stroke-opacity="1"></use></g></g><g><use xlink:href="#d3ttJMlbPU" opacity="1" fill="#000000" fill-opacity="0"></use><g><use xlink:href="#d3ttJMlbPU" opacity="1" fill-opacity="0" stroke="#989b9f" stroke-width="2" stroke-opacity="1"></use></g></g><g><use xlink:href="#dIZxO8WDB" opacity="1" fill="#000000" fill-opacity="0"></use><g><use xlink:href="#dIZxO8WDB" opacity="1" fill-opacity="0" stroke="#989b9f" stroke-width="2" stroke-opacity="1"></use></g></g></g></g></svg>